<mxfile host="app.diagrams.net" modified="2023-11-08T11:24:02.892Z" agent="Mozilla/5.0 (Windows NT 10.0; Win64; x64) AppleWebKit/537.36 (KHTML, like Gecko) Chrome/118.0.0.0 Safari/537.36 Edg/118.0.2088.76" etag="hFrOxydulH1ZP0CADDU4" version="22.0.8" type="device">
  <diagram id="UXIPkQefFEDrWGH3IdC5" name="MiWoEx_neu">
    <mxGraphModel dx="4483" dy="2991" grid="1" gridSize="10" guides="1" tooltips="1" connect="1" arrows="1" fold="1" page="0" pageScale="1" pageWidth="827" pageHeight="1169" math="0" shadow="0">
      <root>
        <mxCell id="97505-SNcamct329gDO7-0" />
        <mxCell id="97505-SNcamct329gDO7-1" parent="97505-SNcamct329gDO7-0" />
        <object label="con:Concrete" Type="Class" IRI="http://www.ontologyrepository.com/CommonCoreOntologies/Artifact" id="4S3OoNcXCZUGaDcpZlmq-7">
          <mxCell style="rounded=0;whiteSpace=wrap;html=1;snapToPoint=1;points=[[0.1,0],[0.2,0],[0.3,0],[0.4,0],[0.5,0],[0.6,0],[0.7,0],[0.8,0],[0.9,0],[0,0.1],[0,0.3],[0,0.5],[0,0.7],[0,0.9],[0.1,1],[0.2,1],[0.3,1],[0.4,1],[0.5,1],[0.6,1],[0.7,1],[0.8,1],[0.9,1],[1,0.1],[1,0.3],[1,0.5],[1,0.7],[1,0.9]];fillColor=#97D077;" parent="97505-SNcamct329gDO7-1" vertex="1">
            <mxGeometry x="-2110" y="-1339.75" width="100" height="30" as="geometry" />
          </mxCell>
        </object>
        <object label="&lt;u&gt;con:&lt;/u&gt;&lt;u&gt;Concrete_&lt;/u&gt;" Type="Individual" IRI="Null" id="4S3OoNcXCZUGaDcpZlmq-8">
          <mxCell style="rounded=0;whiteSpace=wrap;html=1;snapToPoint=1;fillColor=#97D077;" parent="97505-SNcamct329gDO7-1" vertex="1">
            <mxGeometry x="-2110" y="-1309.75" width="100" height="30" as="geometry" />
          </mxCell>
        </object>
        <object label="pmd:https://material-digital.de/pmdco/&lt;br/&gt;ns1:http://wikiba.se/ontology#&lt;br/&gt;ns2:http://wikiba.se/ontology/&lt;br/&gt;rdfs:http://www.w3.org/2000/01/rdf-schema#&lt;br/&gt;owl:http://www.w3.org/2002/07/owl#&lt;br/&gt;" Type="Namespace" id="ruoCuIgoFp16ZF_0LyHv-2">
          <mxCell style="shape=note;whiteSpace=wrap;html=1;backgroundOutline=1;darkOpacity=0.05;" parent="97505-SNcamct329gDO7-1" vertex="1">
            <mxGeometry x="-1919" y="-1749.93" width="280" height="77.93" as="geometry" />
          </mxCell>
        </object>
        <object label="base:https://purl.matolab.org/mseo/methods/example/&lt;br&gt;mid:https://purl.matolab.org/mseo/mid/&lt;br&gt;cco:http://www.ontologyrepository.com/CommonCoreOntologies/&lt;br&gt;obo:http://purl.obolibrary.org/obo/&lt;br&gt;pt:http://www.daml.org/2003/01/periodictable/PeriodicTable#&lt;br&gt;geo:http://www.opengis.net/ont/geosparql#&lt;br&gt;con:&lt;span style=&quot;text-align: left&quot;&gt;http://w3id.org/concrete/&lt;/span&gt;" Type="Namespace" id="ruoCuIgoFp16ZF_0LyHv-3">
          <mxCell style="shape=note;whiteSpace=wrap;html=1;backgroundOutline=1;darkOpacity=0.05;" parent="97505-SNcamct329gDO7-1" vertex="1">
            <mxGeometry x="-1918" y="-1879.93" width="390" height="116" as="geometry" />
          </mxCell>
        </object>
        <object label="con:Mixing" Type="Class" IRI="http://www.ontologyrepository.com/CommonCoreOntologies/Artifact" id="37UOdtx9yiyN65UCFOAC-2">
          <mxCell style="rounded=0;whiteSpace=wrap;html=1;snapToPoint=1;points=[[0.1,0],[0.2,0],[0.3,0],[0.4,0],[0.5,0],[0.6,0],[0.7,0],[0.8,0],[0.9,0],[0,0.1],[0,0.3],[0,0.5],[0,0.7],[0,0.9],[0.1,1],[0.2,1],[0.3,1],[0.4,1],[0.5,1],[0.6,1],[0.7,1],[0.8,1],[0.9,1],[1,0.1],[1,0.3],[1,0.5],[1,0.7],[1,0.9]];fillColor=default;" parent="97505-SNcamct329gDO7-1" vertex="1">
            <mxGeometry x="-1860" y="-1339.75" width="100" height="30" as="geometry" />
          </mxCell>
        </object>
        <object label="&lt;u&gt;con:Mixing&lt;/u&gt;&lt;u&gt;_&lt;/u&gt;" Type="Individual" IRI="Null" id="37UOdtx9yiyN65UCFOAC-3">
          <mxCell style="rounded=0;whiteSpace=wrap;html=1;snapToPoint=1;fillColor=default;" parent="97505-SNcamct329gDO7-1" vertex="1">
            <mxGeometry x="-1860" y="-1309.75" width="100" height="30" as="geometry" />
          </mxCell>
        </object>
        <object label="cco:has_process_part" Type="ObjectProperty" IRI="http://www.ontologyrepository.com/CommonCoreOntologies/has_process_part" id="37UOdtx9yiyN65UCFOAC-4">
          <mxCell style="endArrow=classic;html=1;exitX=1;exitY=0.5;exitDx=0;exitDy=0;entryX=0;entryY=0.5;entryDx=0;entryDy=0;endSize=8;arcSize=0;edgeStyle=orthogonalEdgeStyle;" parent="97505-SNcamct329gDO7-1" source="4S3OoNcXCZUGaDcpZlmq-8" target="37UOdtx9yiyN65UCFOAC-3" edge="1">
            <mxGeometry width="90" height="26" as="geometry">
              <mxPoint x="-1695.749999999999" y="-1704.99" as="sourcePoint" />
              <mxPoint x="-1560" y="-1303.9899999999996" as="targetPoint" />
              <mxPoint x="-5" as="offset" />
            </mxGeometry>
          </mxCell>
        </object>
        <object label="con:Location" Type="Class" IRI="Null" id="37UOdtx9yiyN65UCFOAC-33">
          <mxCell style="rounded=0;whiteSpace=wrap;html=1;snapToPoint=1;points=[[0.1,0],[0.2,0],[0.3,0],[0.4,0],[0.5,0],[0.6,0],[0.7,0],[0.8,0],[0.9,0],[0,0.1],[0,0.3],[0,0.5],[0,0.7],[0,0.9],[0.1,1],[0.2,1],[0.3,1],[0.4,1],[0.5,1],[0.6,1],[0.7,1],[0.8,1],[0.9,1],[1,0.1],[1,0.3],[1,0.5],[1,0.7],[1,0.9]];fillColor=#FFFFFF;" parent="97505-SNcamct329gDO7-1" vertex="1">
            <mxGeometry x="-1560" y="-1252" width="160" height="30" as="geometry" />
          </mxCell>
        </object>
        <object label="&lt;u&gt;con:&lt;/u&gt;&lt;u&gt;Lab_&lt;/u&gt;" Type="Individual" IRI="Null" id="37UOdtx9yiyN65UCFOAC-34">
          <mxCell style="rounded=0;whiteSpace=wrap;html=1;snapToPoint=1;fillColor=#FFFFFF;" parent="97505-SNcamct329gDO7-1" vertex="1">
            <mxGeometry x="-1560" y="-1222" width="160" height="30" as="geometry" />
          </mxCell>
        </object>
        <object label="cco:Day" Type="Class" IRI="http://www.ontologyrepository.com/CommonCoreOntologies/Day" id="37UOdtx9yiyN65UCFOAC-35">
          <mxCell style="rounded=0;whiteSpace=wrap;html=1;snapToPoint=1;points=[[0.1,0],[0.2,0],[0.3,0],[0.4,0],[0.5,0],[0.6,0],[0.7,0],[0.8,0],[0.9,0],[0,0.1],[0,0.3],[0,0.5],[0,0.7],[0,0.9],[0.1,1],[0.2,1],[0.3,1],[0.4,1],[0.5,1],[0.6,1],[0.7,1],[0.8,1],[0.9,1],[1,0.1],[1,0.3],[1,0.5],[1,0.7],[1,0.9]];fillColor=#FFFFFF;" parent="97505-SNcamct329gDO7-1" vertex="1">
            <mxGeometry x="-1560" y="-1180" width="160" height="30" as="geometry" />
          </mxCell>
        </object>
        <object label="&lt;u&gt;con:&lt;/u&gt;&lt;u&gt;MixingDate_&lt;/u&gt;" Type="Individual" IRI="Null" id="37UOdtx9yiyN65UCFOAC-36">
          <mxCell style="rounded=0;whiteSpace=wrap;html=1;snapToPoint=1;fillColor=#FFFFFF;" parent="97505-SNcamct329gDO7-1" vertex="1">
            <mxGeometry x="-1560" y="-1150" width="160" height="30" as="geometry" />
          </mxCell>
        </object>
        <object label="mid:RawDataSet" Type="Class" IRI="https://purl.matolab.org/mseo/mid/RawDataSet" id="37UOdtx9yiyN65UCFOAC-37">
          <mxCell style="rounded=0;whiteSpace=wrap;html=1;snapToPoint=1;points=[[0.1,0],[0.2,0],[0.3,0],[0.4,0],[0.5,0],[0.6,0],[0.7,0],[0.8,0],[0.9,0],[0,0.1],[0,0.3],[0,0.5],[0,0.7],[0,0.9],[0.1,1],[0.2,1],[0.3,1],[0.4,1],[0.5,1],[0.6,1],[0.7,1],[0.8,1],[0.9,1],[1,0.1],[1,0.3],[1,0.5],[1,0.7],[1,0.9]];fillColor=#FFFFFF;" parent="97505-SNcamct329gDO7-1" vertex="1">
            <mxGeometry x="-1560" y="-1108" width="160" height="30" as="geometry" />
          </mxCell>
        </object>
        <object label="&lt;u&gt;con:&lt;/u&gt;&lt;u&gt;RawDataFile_&lt;/u&gt;" Type="Individual" IRI="Null" id="37UOdtx9yiyN65UCFOAC-38">
          <mxCell style="rounded=0;whiteSpace=wrap;html=1;snapToPoint=1;" parent="97505-SNcamct329gDO7-1" vertex="1">
            <mxGeometry x="-1560" y="-1078" width="160" height="30" as="geometry" />
          </mxCell>
        </object>
        <object label="cco:Weight" Type="Class" IRI="http://www.ontologyrepository.com/CommonCoreOntologies/Weight" id="zf5pZAyE4eQlxKrx-_TG-10">
          <mxCell style="rounded=0;whiteSpace=wrap;html=1;snapToPoint=1;points=[[0.1,0],[0.2,0],[0.3,0],[0.4,0],[0.5,0],[0.6,0],[0.7,0],[0.8,0],[0.9,0],[0,0.1],[0,0.3],[0,0.5],[0,0.7],[0,0.9],[0.1,1],[0.2,1],[0.3,1],[0.4,1],[0.5,1],[0.6,1],[0.7,1],[0.8,1],[0.9,1],[1,0.1],[1,0.3],[1,0.5],[1,0.7],[1,0.9]];fillColor=#FFFFFF;" parent="97505-SNcamct329gDO7-1" vertex="1">
            <mxGeometry x="-1560" y="-1010" width="160" height="30" as="geometry" />
          </mxCell>
        </object>
        <object label="&lt;u&gt;con:Weight_&lt;/u&gt;" Type="Individual" IRI="Null" id="zf5pZAyE4eQlxKrx-_TG-11">
          <mxCell style="rounded=0;whiteSpace=wrap;html=1;snapToPoint=1;fillColor=default;" parent="97505-SNcamct329gDO7-1" vertex="1">
            <mxGeometry x="-1560" y="-980" width="160" height="30" as="geometry" />
          </mxCell>
        </object>
        <object label="cco:has_output" Type="ObjectProperty" IRI="http://www.ontologyrepository.com/CommonCoreOntologies/has_output" id="zf5pZAyE4eQlxKrx-_TG-12">
          <mxCell style="endArrow=classic;html=1;exitX=1;exitY=0.5;exitDx=0;exitDy=0;endSize=8;arcSize=0;edgeStyle=orthogonalEdgeStyle;fillColor=#E6E6E6;entryX=0;entryY=0.5;entryDx=0;entryDy=0;strokeColor=#FFB570;" parent="97505-SNcamct329gDO7-1" source="37UOdtx9yiyN65UCFOAC-3" target="U4iHEN9edVXJ7DqGmUpl-4" edge="1">
            <mxGeometry width="90" height="26" as="geometry">
              <mxPoint x="-1540" y="-1375.5" as="sourcePoint" />
              <mxPoint x="-1530" y="-1490" as="targetPoint" />
              <mxPoint x="40" y="-80" as="offset" />
              <Array as="points">
                <mxPoint x="-1680" y="-1295" />
                <mxPoint x="-1680" y="-1455" />
              </Array>
            </mxGeometry>
          </mxCell>
        </object>
        <object label="cco:has_output" Type="ObjectProperty" IRI="http://www.ontologyrepository.com/CommonCoreOntologies/has_output" id="zf5pZAyE4eQlxKrx-_TG-13">
          <mxCell style="endArrow=classic;html=1;exitX=1;exitY=0.5;exitDx=0;exitDy=0;endSize=8;arcSize=0;edgeStyle=orthogonalEdgeStyle;fillColor=#E6E6E6;entryX=0;entryY=0.5;entryDx=0;entryDy=0;strokeColor=#FFB570;" parent="97505-SNcamct329gDO7-1" source="37UOdtx9yiyN65UCFOAC-3" target="U4iHEN9edVXJ7DqGmUpl-6" edge="1">
            <mxGeometry width="90" height="26" as="geometry">
              <mxPoint x="-1510" y="-1482" as="sourcePoint" />
              <mxPoint x="-1530" y="-1412" as="targetPoint" />
              <mxPoint x="40" y="-36" as="offset" />
              <Array as="points">
                <mxPoint x="-1680" y="-1295" />
                <mxPoint x="-1680" y="-1367" />
              </Array>
            </mxGeometry>
          </mxCell>
        </object>
        <object label="cco:has_output" Type="ObjectProperty" IRI="http://www.ontologyrepository.com/CommonCoreOntologies/has_output" id="zf5pZAyE4eQlxKrx-_TG-14">
          <mxCell style="endArrow=classic;html=1;exitX=1;exitY=0.5;exitDx=0;exitDy=0;endSize=8;arcSize=0;edgeStyle=orthogonalEdgeStyle;fillColor=#E6E6E6;entryX=0;entryY=0.5;entryDx=0;entryDy=0;strokeColor=#FFB570;" parent="97505-SNcamct329gDO7-1" source="37UOdtx9yiyN65UCFOAC-3" target="U4iHEN9edVXJ7DqGmUpl-10" edge="1">
            <mxGeometry width="90" height="26" as="geometry">
              <mxPoint x="-1500" y="-1472" as="sourcePoint" />
              <mxPoint x="-1530" y="-1342.5" as="targetPoint" />
              <mxPoint x="40" y="5" as="offset" />
              <Array as="points">
                <mxPoint x="-1680" y="-1295" />
                <mxPoint x="-1680" y="-1284" />
              </Array>
            </mxGeometry>
          </mxCell>
        </object>
        <object label="cco:has_output" Type="ObjectProperty" IRI="http://www.ontologyrepository.com/CommonCoreOntologies/has_output" id="zf5pZAyE4eQlxKrx-_TG-15">
          <mxCell style="endArrow=classic;html=1;exitX=1;exitY=0.5;exitDx=0;exitDy=0;endSize=8;arcSize=0;edgeStyle=orthogonalEdgeStyle;fillColor=#E6E6E6;entryX=0;entryY=0.5;entryDx=0;entryDy=0;strokeColor=#FFB570;" parent="97505-SNcamct329gDO7-1" source="37UOdtx9yiyN65UCFOAC-3" target="37UOdtx9yiyN65UCFOAC-34" edge="1">
            <mxGeometry width="90" height="26" as="geometry">
              <mxPoint x="-1490" y="-1462" as="sourcePoint" />
              <mxPoint x="-1361" y="-1462" as="targetPoint" />
              <mxPoint x="40" y="44" as="offset" />
              <Array as="points">
                <mxPoint x="-1680" y="-1295" />
                <mxPoint x="-1680" y="-1207" />
              </Array>
            </mxGeometry>
          </mxCell>
        </object>
        <object label="cco:has_output" Type="ObjectProperty" IRI="http://www.ontologyrepository.com/CommonCoreOntologies/has_output" id="zf5pZAyE4eQlxKrx-_TG-16">
          <mxCell style="endArrow=classic;html=1;exitX=1;exitY=0.5;exitDx=0;exitDy=0;endSize=8;arcSize=0;edgeStyle=orthogonalEdgeStyle;fillColor=#E6E6E6;entryX=0;entryY=0.5;entryDx=0;entryDy=0;strokeColor=#FFB570;" parent="97505-SNcamct329gDO7-1" source="37UOdtx9yiyN65UCFOAC-3" target="37UOdtx9yiyN65UCFOAC-36" edge="1">
            <mxGeometry width="90" height="26" as="geometry">
              <mxPoint x="-1480" y="-1452" as="sourcePoint" />
              <mxPoint x="-1351" y="-1452" as="targetPoint" />
              <mxPoint x="40" y="80" as="offset" />
              <Array as="points">
                <mxPoint x="-1680" y="-1295" />
                <mxPoint x="-1680" y="-1135" />
              </Array>
            </mxGeometry>
          </mxCell>
        </object>
        <object label="cco:has_output" Type="ObjectProperty" IRI="http://www.ontologyrepository.com/CommonCoreOntologies/has_output" id="zf5pZAyE4eQlxKrx-_TG-17">
          <mxCell style="endArrow=classic;html=1;exitX=1;exitY=0.5;exitDx=0;exitDy=0;endSize=8;arcSize=0;edgeStyle=orthogonalEdgeStyle;fillColor=#E6E6E6;entryX=0;entryY=0.5;entryDx=0;entryDy=0;strokeColor=#FFB570;" parent="97505-SNcamct329gDO7-1" source="37UOdtx9yiyN65UCFOAC-3" target="37UOdtx9yiyN65UCFOAC-38" edge="1">
            <mxGeometry width="90" height="26" as="geometry">
              <mxPoint x="-1470" y="-1442" as="sourcePoint" />
              <mxPoint x="-1341" y="-1442" as="targetPoint" />
              <mxPoint x="40" y="116" as="offset" />
              <Array as="points">
                <mxPoint x="-1680" y="-1295" />
                <mxPoint x="-1680" y="-1063" />
              </Array>
            </mxGeometry>
          </mxCell>
        </object>
        <object label="cco:has_output" Type="ObjectProperty" IRI="http://www.ontologyrepository.com/CommonCoreOntologies/has_output" id="zf5pZAyE4eQlxKrx-_TG-18">
          <mxCell style="endArrow=classic;html=1;exitX=1;exitY=0.5;exitDx=0;exitDy=0;endSize=8;arcSize=0;edgeStyle=orthogonalEdgeStyle;fillColor=#E6E6E6;entryX=0;entryY=0.5;entryDx=0;entryDy=0;strokeColor=#FFB570;" parent="97505-SNcamct329gDO7-1" source="37UOdtx9yiyN65UCFOAC-3" target="zf5pZAyE4eQlxKrx-_TG-11" edge="1">
            <mxGeometry width="90" height="26" as="geometry">
              <mxPoint x="-1460" y="-1432" as="sourcePoint" />
              <mxPoint x="-1331" y="-1432" as="targetPoint" />
              <mxPoint x="40" y="165" as="offset" />
              <Array as="points">
                <mxPoint x="-1680" y="-1295" />
                <mxPoint x="-1680" y="-965" />
              </Array>
            </mxGeometry>
          </mxCell>
        </object>
        <object label="&lt;font style=&quot;font-size: 11px&quot;&gt;cco:has_text_value&lt;/font&gt;" Type="DatatypeProperty" IRI="http://www.ontologyrepository.com/CommonCoreOntologies/has_text_value" id="zf5pZAyE4eQlxKrx-_TG-21">
          <mxCell style="edgeStyle=orthogonalEdgeStyle;rounded=0;orthogonalLoop=1;jettySize=auto;html=1;fontSize=12;exitX=1;exitY=0.5;exitDx=0;exitDy=0;fillColor=#FFFFFF;entryX=0;entryY=0.5;entryDx=0;entryDy=0;" parent="97505-SNcamct329gDO7-1" source="U4iHEN9edVXJ7DqGmUpl-4" target="zf5pZAyE4eQlxKrx-_TG-22" edge="1">
            <mxGeometry as="geometry">
              <mxPoint x="-1419" y="-1455" as="sourcePoint" />
              <mxPoint x="-1191" y="-1419" as="targetPoint" />
              <mxPoint as="offset" />
            </mxGeometry>
          </mxCell>
        </object>
        <object label="&quot;$$ConcreteMixer_Value$$&quot;^^xsd:string" Type="DataValue" IRI_DT="http://www.w3.org/2001/XMLSchema#string" id="zf5pZAyE4eQlxKrx-_TG-22">
          <mxCell style="rounded=0;whiteSpace=wrap;html=1;snapToPoint=1;shadow=0;glass=0;sketch=0;strokeColor=default;fontSize=12;fillColor=#FF8C00;" parent="97505-SNcamct329gDO7-1" vertex="1">
            <mxGeometry x="-1240" y="-1465" width="280" height="20" as="geometry" />
          </mxCell>
        </object>
        <object label="&lt;font style=&quot;font-size: 11px&quot;&gt;cco:has_text_value&lt;/font&gt;" Type="DatatypeProperty" IRI="http://www.ontologyrepository.com/CommonCoreOntologies/has_text_value" id="zf5pZAyE4eQlxKrx-_TG-26">
          <mxCell style="edgeStyle=orthogonalEdgeStyle;rounded=0;orthogonalLoop=1;jettySize=auto;html=1;fontSize=12;exitX=1;exitY=0.5;exitDx=0;exitDy=0;fillColor=#FFFFFF;entryX=0;entryY=0.5;entryDx=0;entryDy=0;" parent="97505-SNcamct329gDO7-1" source="37UOdtx9yiyN65UCFOAC-34" target="zf5pZAyE4eQlxKrx-_TG-27" edge="1">
            <mxGeometry as="geometry">
              <mxPoint x="-1290" y="-1162.99" as="sourcePoint" />
              <mxPoint x="-1182" y="-1148" as="targetPoint" />
              <mxPoint x="-4" as="offset" />
            </mxGeometry>
          </mxCell>
        </object>
        <object label="&quot;$$Lab_Value$$&quot;^^xsd:string" Type="DataValue" IRI_DT="http://www.w3.org/2001/XMLSchema#string" id="zf5pZAyE4eQlxKrx-_TG-27">
          <mxCell style="rounded=0;whiteSpace=wrap;html=1;snapToPoint=1;shadow=0;glass=0;sketch=0;strokeColor=default;fontSize=12;fillColor=#FF8C00;" parent="97505-SNcamct329gDO7-1" vertex="1">
            <mxGeometry x="-1240" y="-1217" width="280" height="20" as="geometry" />
          </mxCell>
        </object>
        <object label="&lt;font style=&quot;font-size: 11px&quot;&gt;cco:has_datetime_value&lt;/font&gt;" Type="DatatypeProperty" IRI="http://www.ontologyrepository.com/CommonCoreOntologies/has_datetime_value" id="zf5pZAyE4eQlxKrx-_TG-28">
          <mxCell style="edgeStyle=orthogonalEdgeStyle;rounded=0;orthogonalLoop=1;jettySize=auto;html=1;fontSize=12;entryX=0;entryY=0.5;entryDx=0;entryDy=0;fillColor=#FFFFFF;exitX=1;exitY=0.5;exitDx=0;exitDy=0;" parent="97505-SNcamct329gDO7-1" source="37UOdtx9yiyN65UCFOAC-36" target="zf5pZAyE4eQlxKrx-_TG-29" edge="1">
            <mxGeometry as="geometry">
              <mxPoint x="-1265" y="-1132.5" as="sourcePoint" />
              <mxPoint x="-1804.5" y="-1179.5000000000002" as="targetPoint" />
              <mxPoint x="-4" as="offset" />
            </mxGeometry>
          </mxCell>
        </object>
        <object label="&quot;$$MixingDate_Value$$&quot;^^xsd:dateTime" Type="DataValue" IRI_DT="http://www.w3.org/2001/XMLSchema#dateTime" id="zf5pZAyE4eQlxKrx-_TG-29">
          <mxCell style="rounded=0;whiteSpace=wrap;html=1;snapToPoint=1;shadow=0;glass=0;sketch=0;strokeColor=default;fontSize=12;fillColor=#FF8C00;" parent="97505-SNcamct329gDO7-1" vertex="1">
            <mxGeometry x="-1240" y="-1145" width="280" height="20" as="geometry" />
          </mxCell>
        </object>
        <object label="cco:has_URI_value" Type="DatatypeProperty" IRI="http://www.ontologyrepository.com/CommonCoreOntologies/has_URI_value" id="zf5pZAyE4eQlxKrx-_TG-31">
          <mxCell style="edgeStyle=orthogonalEdgeStyle;rounded=0;orthogonalLoop=1;jettySize=auto;html=1;fontSize=12;exitX=1;exitY=0.5;exitDx=0;exitDy=0;entryX=0;entryY=0.5;entryDx=0;entryDy=0;fillColor=#FFFFFF;" parent="97505-SNcamct329gDO7-1" source="37UOdtx9yiyN65UCFOAC-38" target="zf5pZAyE4eQlxKrx-_TG-32" edge="1">
            <mxGeometry as="geometry">
              <mxPoint x="-1210" y="-1050.03" as="sourcePoint" />
              <mxPoint x="-1062" y="-989.03" as="targetPoint" />
              <mxPoint x="-4" as="offset" />
            </mxGeometry>
          </mxCell>
        </object>
        <object label="&quot;$$RawDataFile_Value$$&quot;^^xsd:anyURI" Type="DataValue" IRI_DT="http://www.w3.org/2001/XMLSchema#anyURI" id="zf5pZAyE4eQlxKrx-_TG-32">
          <mxCell style="rounded=0;whiteSpace=wrap;html=1;snapToPoint=1;shadow=0;glass=0;sketch=0;strokeColor=default;fontSize=12;fillColor=#FF8C00;" parent="97505-SNcamct329gDO7-1" vertex="1">
            <mxGeometry x="-1240" y="-1073" width="280" height="20" as="geometry" />
          </mxCell>
        </object>
        <object label="&lt;font style=&quot;font-size: 11px&quot;&gt;cco:has_decimal_value&lt;/font&gt;" Type="DatatypeProperty" IRI="http://www.ontologyrepository.com/CommonCoreOntologies/has_decimal_value" id="zf5pZAyE4eQlxKrx-_TG-33">
          <mxCell style="edgeStyle=orthogonalEdgeStyle;rounded=0;orthogonalLoop=1;jettySize=auto;html=1;exitX=1;exitY=0.75;exitDx=0;exitDy=0;fontSize=12;entryX=0;entryY=0.5;entryDx=0;entryDy=0;fillColor=#FFFFFF;" parent="97505-SNcamct329gDO7-1" source="zf5pZAyE4eQlxKrx-_TG-11" target="zf5pZAyE4eQlxKrx-_TG-34" edge="1">
            <mxGeometry as="geometry">
              <mxPoint x="-1290" y="-990" as="sourcePoint" />
              <mxPoint x="-1209" y="-917" as="targetPoint" />
              <mxPoint x="-1" y="-3" as="offset" />
              <Array as="points">
                <mxPoint x="-1270" y="-957" />
                <mxPoint x="-1250" y="-957" />
              </Array>
            </mxGeometry>
          </mxCell>
        </object>
        <object label="&quot;$$Weight_Value$$&quot;^^xsd:decimal" Type="DataValue" IRI_DT="http://www.w3.org/2001/XMLSchema#decimal" id="zf5pZAyE4eQlxKrx-_TG-34">
          <mxCell style="rounded=0;whiteSpace=wrap;html=1;snapToPoint=1;shadow=0;glass=0;sketch=0;strokeColor=default;fontSize=12;fillColor=#FF8C00;" parent="97505-SNcamct329gDO7-1" vertex="1">
            <mxGeometry x="-1239" y="-967" width="279" height="20" as="geometry" />
          </mxCell>
        </object>
        <object label="pmd:hasPmdUnit" Type="ObjectProperty" IRI="https://material-digital.de/pmdco/hasPmdUnit" id="zf5pZAyE4eQlxKrx-_TG-35">
          <mxCell style="endArrow=classic;html=1;exitX=1;exitY=0.25;exitDx=0;exitDy=0;entryX=0;entryY=0.25;entryDx=0;entryDy=0;endSize=8;arcSize=0;edgeStyle=orthogonalEdgeStyle;fillColor=#FFFFFF;strokeColor=#FF6666;" parent="97505-SNcamct329gDO7-1" source="zf5pZAyE4eQlxKrx-_TG-11" target="zf5pZAyE4eQlxKrx-_TG-39" edge="1">
            <mxGeometry x="-1380" y="-324" width="90" height="26" as="geometry">
              <mxPoint x="-1295.51" y="-972.5" as="sourcePoint" />
              <mxPoint x="-1130.01" y="-994" as="targetPoint" />
              <mxPoint x="-5" as="offset" />
            </mxGeometry>
          </mxCell>
        </object>
        <object label="pmd:PmdSiUnit" Type="Class" IRI="https://material-digital.de/pmdco/PmdSiUnit" id="zf5pZAyE4eQlxKrx-_TG-38">
          <mxCell style="rounded=0;whiteSpace=wrap;html=1;snapToPoint=1;points=[[0.1,0],[0.2,0],[0.3,0],[0.4,0],[0.5,0],[0.6,0],[0.7,0],[0.8,0],[0.9,0],[0,0.1],[0,0.3],[0,0.5],[0,0.7],[0,0.9],[0.1,1],[0.2,1],[0.3,1],[0.4,1],[0.5,1],[0.6,1],[0.7,1],[0.8,1],[0.9,1],[1,0.1],[1,0.3],[1,0.5],[1,0.7],[1,0.9]];fillColor=#FFFFFF;" parent="97505-SNcamct329gDO7-1" vertex="1">
            <mxGeometry x="-1240" y="-1034" width="160" height="30" as="geometry" />
          </mxCell>
        </object>
        <object label="&lt;u&gt;con:##Weight_Unit##&lt;/u&gt;" Type="Individual" id="zf5pZAyE4eQlxKrx-_TG-39">
          <mxCell style="rounded=0;whiteSpace=wrap;html=1;snapToPoint=1;fillColor=#FFFFFF;" parent="97505-SNcamct329gDO7-1" vertex="1">
            <mxGeometry x="-1240" y="-1004" width="160" height="30" as="geometry" />
          </mxCell>
        </object>
        <object label="pmd:hasPmdUnit" Type="ObjectProperty" IRI="https://material-digital.de/pmdco/hasPmdUnit" id="zf5pZAyE4eQlxKrx-_TG-40">
          <mxCell style="endArrow=classic;html=1;entryX=0;entryY=0.25;entryDx=0;entryDy=0;endSize=8;arcSize=0;edgeStyle=orthogonalEdgeStyle;exitX=1;exitY=0.25;exitDx=0;exitDy=0;fillColor=#FFFFFF;strokeColor=#FF6666;" parent="97505-SNcamct329gDO7-1" source="U4iHEN9edVXJ7DqGmUpl-6" target="zf5pZAyE4eQlxKrx-_TG-43" edge="1">
            <mxGeometry x="-1380" y="-324" width="90" height="26" as="geometry">
              <mxPoint x="-1430" y="-1369.5" as="sourcePoint" />
              <mxPoint x="-2399.4700000000003" y="5535.26" as="targetPoint" />
            </mxGeometry>
          </mxCell>
        </object>
        <object label="&lt;font style=&quot;font-size: 11px&quot;&gt;cco:has_decimal_value&lt;/font&gt;" Type="DatatypeProperty" IRI="http://www.ontologyrepository.com/CommonCoreOntologies/has_decimal_value" id="zf5pZAyE4eQlxKrx-_TG-41">
          <mxCell style="edgeStyle=orthogonalEdgeStyle;rounded=0;orthogonalLoop=1;jettySize=auto;html=1;fontSize=12;entryX=0;entryY=0.5;entryDx=0;entryDy=0;fillColor=#FFFFFF;exitX=1;exitY=0.75;exitDx=0;exitDy=0;" parent="97505-SNcamct329gDO7-1" source="U4iHEN9edVXJ7DqGmUpl-6" target="zf5pZAyE4eQlxKrx-_TG-44" edge="1">
            <mxGeometry as="geometry">
              <mxPoint x="-1430" y="-1362" as="sourcePoint" />
              <mxPoint x="-2388.4700000000003" y="5625.26" as="targetPoint" />
              <mxPoint as="offset" />
            </mxGeometry>
          </mxCell>
        </object>
        <object label="pmd:PmdSiUnit" Type="Class" IRI="https://material-digital.de/pmdco/PmdSiUnit" id="zf5pZAyE4eQlxKrx-_TG-42">
          <mxCell style="rounded=0;whiteSpace=wrap;html=1;fillColor=#FFFFFF;" parent="97505-SNcamct329gDO7-1" vertex="1">
            <mxGeometry x="-1239" y="-1430" width="159" height="26" as="geometry" />
          </mxCell>
        </object>
        <object label="&lt;u&gt;con:##MixingTime_Unit##&lt;/u&gt;" Type="Individual" IRI="http://www.ontologyrepository.com/CommonCoreOntologies/HourMeasurementUnit" id="zf5pZAyE4eQlxKrx-_TG-43">
          <mxCell style="rounded=0;whiteSpace=wrap;html=1;fillColor=#FFFFFF;" parent="97505-SNcamct329gDO7-1" vertex="1">
            <mxGeometry x="-1239" y="-1404" width="159" height="26" as="geometry" />
          </mxCell>
        </object>
        <object label="&quot;$$MixingTime_Value$$&quot;^^xsd:decimal" Type="DataValue" IRI_DT="http://www.w3.org/2001/XMLSchema#decimal" id="zf5pZAyE4eQlxKrx-_TG-44">
          <mxCell style="rounded=0;whiteSpace=wrap;html=1;snapToPoint=1;shadow=0;glass=0;sketch=0;strokeColor=default;fontSize=12;fillColor=#FF8C00;" parent="97505-SNcamct329gDO7-1" vertex="1">
            <mxGeometry x="-1240" y="-1370" width="280" height="20" as="geometry" />
          </mxCell>
        </object>
        <object label="con:Mixer" Type="Class" IRI="Null" id="U4iHEN9edVXJ7DqGmUpl-3">
          <mxCell style="rounded=0;whiteSpace=wrap;html=1;snapToPoint=1;points=[[0.1,0],[0.2,0],[0.3,0],[0.4,0],[0.5,0],[0.6,0],[0.7,0],[0.8,0],[0.9,0],[0,0.1],[0,0.3],[0,0.5],[0,0.7],[0,0.9],[0.1,1],[0.2,1],[0.3,1],[0.4,1],[0.5,1],[0.6,1],[0.7,1],[0.8,1],[0.9,1],[1,0.1],[1,0.3],[1,0.5],[1,0.7],[1,0.9]];" parent="97505-SNcamct329gDO7-1" vertex="1">
            <mxGeometry x="-1560" y="-1500" width="160" height="30" as="geometry" />
          </mxCell>
        </object>
        <object label="&lt;u&gt;con:ConcreteMixer_&lt;/u&gt;" Type="Individual" IRI="Null" id="U4iHEN9edVXJ7DqGmUpl-4">
          <mxCell style="rounded=0;whiteSpace=wrap;html=1;snapToPoint=1;" parent="97505-SNcamct329gDO7-1" vertex="1">
            <mxGeometry x="-1560" y="-1470" width="160" height="30" as="geometry" />
          </mxCell>
        </object>
        <object label="con:Time" Type="Class" IRI="Null" id="U4iHEN9edVXJ7DqGmUpl-5">
          <mxCell style="rounded=0;whiteSpace=wrap;html=1;snapToPoint=1;points=[[0.1,0],[0.2,0],[0.3,0],[0.4,0],[0.5,0],[0.6,0],[0.7,0],[0.8,0],[0.9,0],[0,0.1],[0,0.3],[0,0.5],[0,0.7],[0,0.9],[0.1,1],[0.2,1],[0.3,1],[0.4,1],[0.5,1],[0.6,1],[0.7,1],[0.8,1],[0.9,1],[1,0.1],[1,0.3],[1,0.5],[1,0.7],[1,0.9]];" parent="97505-SNcamct329gDO7-1" vertex="1">
            <mxGeometry x="-1560" y="-1412" width="160" height="30" as="geometry" />
          </mxCell>
        </object>
        <object label="&lt;u&gt;con:MixingTime_&lt;/u&gt;" Type="Individual" IRI="Null" id="U4iHEN9edVXJ7DqGmUpl-6">
          <mxCell style="rounded=0;whiteSpace=wrap;html=1;snapToPoint=1;" parent="97505-SNcamct329gDO7-1" vertex="1">
            <mxGeometry x="-1560" y="-1382" width="160" height="30" as="geometry" />
          </mxCell>
        </object>
        <object label="con:Intensity" Type="Class" IRI="Null" id="U4iHEN9edVXJ7DqGmUpl-9">
          <mxCell style="rounded=0;whiteSpace=wrap;html=1;snapToPoint=1;points=[[0.1,0],[0.2,0],[0.3,0],[0.4,0],[0.5,0],[0.6,0],[0.7,0],[0.8,0],[0.9,0],[0,0.1],[0,0.3],[0,0.5],[0,0.7],[0,0.9],[0.1,1],[0.2,1],[0.3,1],[0.4,1],[0.5,1],[0.6,1],[0.7,1],[0.8,1],[0.9,1],[1,0.1],[1,0.3],[1,0.5],[1,0.7],[1,0.9]];" parent="97505-SNcamct329gDO7-1" vertex="1">
            <mxGeometry x="-1560" y="-1329" width="160" height="30" as="geometry" />
          </mxCell>
        </object>
        <object label="&lt;u&gt;con:Intensity_&lt;/u&gt;" Type="Individual" IRI="Null" id="U4iHEN9edVXJ7DqGmUpl-10">
          <mxCell style="rounded=0;whiteSpace=wrap;html=1;snapToPoint=1;" parent="97505-SNcamct329gDO7-1" vertex="1">
            <mxGeometry x="-1560" y="-1299" width="160" height="30" as="geometry" />
          </mxCell>
        </object>
        <object label="&lt;font style=&quot;font-size: 48px;&quot;&gt;Beschreibung&lt;/font&gt;" Type="Namespace" id="sMxX80i-ci5mQnPqoYBH-0">
          <mxCell style="shape=note;whiteSpace=wrap;html=1;backgroundOutline=1;darkOpacity=0.05;" vertex="1" parent="97505-SNcamct329gDO7-1">
            <mxGeometry x="-880" y="-1240" width="640" height="300" as="geometry" />
          </mxCell>
        </object>
        <object label="&lt;font style=&quot;font-size: 48px;&quot;&gt;Beschreibung&lt;/font&gt;" Type="Namespace" id="sMxX80i-ci5mQnPqoYBH-1">
          <mxCell style="shape=note;whiteSpace=wrap;html=1;backgroundOutline=1;darkOpacity=0.05;" vertex="1" parent="97505-SNcamct329gDO7-1">
            <mxGeometry x="-880" y="-1500" width="640" height="150" as="geometry" />
          </mxCell>
        </object>
        <object label="&lt;font style=&quot;font-size: 48px;&quot;&gt;Beschreibung&lt;/font&gt;" Type="Namespace" id="sMxX80i-ci5mQnPqoYBH-2">
          <mxCell style="shape=note;whiteSpace=wrap;html=1;backgroundOutline=1;darkOpacity=0.05;" vertex="1" parent="97505-SNcamct329gDO7-1">
            <mxGeometry x="-880" y="-1330" width="640" height="60" as="geometry" />
          </mxCell>
        </object>
      </root>
    </mxGraphModel>
  </diagram>
</mxfile>
